<?xml version="1.0" standalone="no"?>
<!DOCTYPE svg PUBLIC "-//W3C//DTD SVG 20010904//EN"
 "http://www.w3.org/TR/2001/REC-SVG-20010904/DTD/svg10.dtd">
<svg version="1.0" xmlns="http://www.w3.org/2000/svg"
 width="100.000000pt" height="100.000000pt" viewBox="0 0 100.000000 100.000000"
 preserveAspectRatio="xMidYMid meet">
<metadata>
Created by potrace 1.11, written by Peter Selinger 2001-2013
</metadata>
<g transform="translate(0.000000,100.000000) scale(0.100000,-0.100000)"
fill="#000000" stroke="none">
<path d="M281 848 c-134 -23 -211 -110 -216 -245 -3 -88 9 -147 50 -229 72
-148 212 -227 395 -226 248 3 423 181 424 432 0 69 -4 94 -23 132 -37 78 -102
122 -203 138 -51 8 -144 -6 -185 -28 -16 -9 -29 -9 -56 3 -51 21 -136 32 -186
23z m132 -104 c13 -5 13 -9 1 -32 -20 -38 -17 -129 5 -178 l18 -40 -41 -19
c-41 -18 -131 -45 -152 -45 -18 0 -46 72 -51 132 -8 78 21 138 80 167 40 20
109 27 140 15z m312 -14 c61 -30 90 -89 82 -170 -6 -65 -43 -145 -61 -131 -6
5 -27 12 -46 16 -49 10 -130 46 -130 57 0 5 7 23 16 41 19 36 21 117 5 160
-16 42 -15 43 40 46 35 1 64 -4 94 -19z m-206 -100 c0 -40 -13 -78 -21 -64
-14 23 -18 73 -8 99 9 23 13 26 20 15 6 -8 9 -31 9 -50z m137 -260 c41 0 27
-20 -33 -47 -79 -36 -167 -36 -247 0 -54 25 -67 46 -28 47 9 1 48 15 86 33
l69 32 65 -32 c35 -18 75 -33 88 -33z"/>
</g>
</svg>
